<?xml version="1.0" encoding="UTF-8"?>
<svg xmlns="http://www.w3.org/2000/svg" xmlns:xlink="http://www.w3.org/1999/xlink" width="24px" height="24px" viewBox="0 0 24 24" version="1.1">
<g id="surface1">
<path style=" stroke:none;fill-rule:nonzero;fill:rgb(100%,100%,100%);fill-opacity:1;" d="M 8.539062 22.480469 C 8.882812 22.335938 9.121094 21.996094 9.121094 21.601562 L 9.121094 19.007812 C 9.121094 18.914062 9.128906 18.816406 9.140625 18.714844 C 9.132812 18.71875 9.125 18.71875 9.121094 18.71875 C 9.121094 18.71875 7.679688 18.71875 7.390625 18.71875 C 6.671875 18.71875 6.046875 18.433594 5.761719 17.855469 C 5.425781 17.230469 5.28125 16.175781 4.414062 15.601562 C 4.273438 15.503906 4.367188 15.359375 4.65625 15.359375 C 4.945312 15.40625 5.566406 15.792969 5.953125 16.320312 C 6.382812 16.847656 6.816406 17.28125 7.585938 17.28125 C 8.777344 17.28125 9.417969 17.21875 9.800781 17.011719 C 10.25 16.347656 10.871094 15.839844 11.519531 15.839844 L 11.519531 15.828125 C 8.800781 15.742188 7.0625 14.835938 6.253906 13.441406 C 4.492188 13.460938 2.960938 13.632812 2.085938 13.78125 C 2.058594 13.621094 2.035156 13.464844 2.015625 13.304688 C 2.878906 13.164062 4.339844 12.996094 6.019531 12.960938 C 5.964844 12.832031 5.917969 12.695312 5.878906 12.554688 C 4.195312 12.46875 2.742188 12.535156 1.949219 12.601562 C 1.941406 12.441406 1.929688 12.285156 1.925781 12.121094 C 2.71875 12.058594 4.132812 11.992188 5.773438 12.070312 C 5.738281 11.828125 5.710938 11.582031 5.710938 11.328125 C 5.710938 10.511719 6 9.648438 6.527344 8.929688 C 6.289062 8.113281 5.953125 6.382812 6.625 5.761719 C 7.921875 5.761719 8.832031 6.382812 9.265625 6.769531 C 10.078125 6.433594 10.992188 6.238281 12 6.238281 C 13.007812 6.238281 13.921875 6.433594 14.6875 6.769531 C 15.121094 6.382812 16.03125 5.761719 17.328125 5.761719 C 18.046875 6.433594 17.664062 8.160156 17.425781 8.929688 C 17.953125 9.648438 18.238281 10.464844 18.191406 11.328125 C 18.191406 11.558594 18.171875 11.785156 18.140625 12.003906 C 19.820312 11.921875 21.273438 11.988281 22.078125 12.054688 C 22.074219 12.214844 22.0625 12.371094 22.050781 12.53125 C 21.25 12.464844 19.761719 12.398438 18.039062 12.488281 C 17.996094 12.652344 17.945312 12.808594 17.882812 12.960938 C 19.585938 12.984375 21.082031 13.148438 21.988281 13.292969 C 21.964844 13.449219 21.941406 13.609375 21.914062 13.765625 C 20.996094 13.617188 19.433594 13.445312 17.652344 13.4375 C 16.855469 14.820312 15.148438 15.71875 12.480469 15.824219 L 12.480469 15.839844 C 13.726562 15.839844 14.878906 17.710938 14.878906 19.007812 L 14.878906 21.601562 C 14.878906 21.996094 15.117188 22.335938 15.460938 22.480469 C 19.859375 21.027344 23.039062 16.878906 23.039062 12 C 23.039062 5.914062 18.085938 0.960938 12 0.960938 C 5.914062 0.960938 0.960938 5.914062 0.960938 12 C 0.960938 16.878906 4.140625 21.027344 8.539062 22.480469 Z M 8.539062 22.480469 "/>
</g>
</svg>
